<?xml version="1.0" standalone="no"?>
<!DOCTYPE svg PUBLIC "-//W3C//DTD SVG 20010904//EN"
 "http://www.w3.org/TR/2001/REC-SVG-20010904/DTD/svg10.dtd">
<svg version="1.0" xmlns="http://www.w3.org/2000/svg"
 width="1800.000000pt" height="1074.000000pt" viewBox="0 0 1800.000000 1074.000000"
 preserveAspectRatio="xMidYMid meet">
<g transform="translate(0.000000,1074.000000) scale(0.100000,-0.100000)"
fill="#000000" stroke="none">
<path d="M7370 10603 c-193 -3 -452 -24 -510 -40 -281 -77 -571 -332 -707
-622 -89 -189 -93 -235 -103 -1231 -5 -474 -13 -836 -19 -865 -5 -27 -10 -56
-10 -63 -1 -8 -16 -28 -33 -44 -31 -29 -33 -35 -32 -99 1 -75 11 -94 61 -116
43 -18 47 -37 36 -190 -5 -71 -8 -131 -6 -135 10 -19 242 1 286 23 42 23 1
128 -76 194 -22 19 -51 35 -64 35 -26 0 -63 32 -63 55 0 9 9 15 21 15 11 0 34
13 50 29 25 26 29 37 29 85 0 53 -24 126 -42 126 -14 0 -9 28 7 34 8 3 15 14
15 25 0 11 17 33 38 49 21 17 48 50 60 74 13 23 27 50 32 58 5 8 21 42 35 75
15 33 40 87 57 120 44 88 57 144 68 300 5 77 14 203 20 280 5 77 10 201 10
275 0 182 33 419 78 565 33 107 95 219 157 280 113 113 311 185 570 206 66 6
144 14 174 19 30 6 82 10 115 10 34 0 113 6 176 14 489 63 606 72 1114 87 410
12 1091 1 1386 -22 69 -6 184 -14 255 -19 276 -19 558 -82 705 -156 55 -28
157 -100 196 -138 40 -40 132 -171 162 -231 34 -67 62 -148 85 -245 82 -342
96 -878 32 -1170 -48 -220 -64 -444 -75 -1110 -17 -1028 -45 -1326 -142 -1545
-44 -99 -140 -196 -238 -241 -167 -75 -387 -100 -1005 -114 -979 -23 -1149
-53 -1685 -307 -123 -58 -146 -69 -227 -105 -123 -54 -76 -60 562 -70 308 -5
902 -6 1320 -3 961 8 1007 12 1221 115 117 57 186 105 295 209 66 61 118 123
161 189 62 93 83 134 159 302 l34 75 3 1455 c1 800 -2 1698 -8 1995 -15 802
-18 818 -235 1090 -140 176 -216 237 -420 340 l-138 70 -1086 6 c-1036 6
-2616 7 -2861 2z"/>
<path d="M8648 9741 c-127 -5 -160 -9 -174 -22 -11 -12 -18 -42 -21 -105 -3
-49 -9 -94 -14 -100 -6 -7 -94 -13 -250 -17 -190 -4 -245 -9 -256 -20 -11 -11
-16 -59 -20 -208 -3 -107 -10 -200 -16 -206 -6 -9 -40 -13 -101 -13 -134 0
-129 6 -136 -190 -6 -190 -2 -184 -115 -193 -90 -8 -110 -17 -120 -54 -4 -15
-9 -146 -12 -291 -6 -302 4 -277 -113 -291 -158 -20 -164 -99 -9 -121 40 -6
70 -16 83 -29 l20 -20 -48 -21 c-26 -11 -55 -20 -64 -20 -40 0 -242 -33 -290
-47 -80 -25 -102 -56 -102 -147 0 -69 -1 -73 -27 -85 -15 -7 -60 -16 -100 -21
-79 -9 -128 -32 -119 -57 3 -8 6 -19 6 -24 0 -16 58 -39 98 -39 62 0 138 -28
153 -57 12 -23 11 -27 -14 -49 -33 -28 -86 -44 -149 -44 -29 0 -52 -6 -62 -16
-19 -19 -16 5 -25 -159 -5 -88 -14 -154 -24 -177 -16 -38 -16 -38 -74 -38 -58
0 -101 -16 -168 -60 -16 -10 -55 -31 -85 -45 -131 -61 -125 -56 -125 -99 0
-38 3 -41 54 -68 37 -19 68 -28 102 -28 38 0 51 -4 63 -22 33 -47 12 -192 -35
-243 -17 -17 -22 -18 -55 -6 -56 20 -99 7 -134 -41 -34 -46 -39 -92 -15 -138
16 -31 49 -45 130 -55 93 -12 120 -56 119 -194 0 -53 -6 -112 -12 -132 -15
-42 -46 -55 -165 -68 -81 -9 -134 -31 -139 -58 -8 -39 60 -213 137 -352 38
-69 150 -194 221 -248 168 -126 340 -186 654 -228 87 -11 219 -15 548 -15 238
-1 437 2 442 5 5 3 6 37 3 75 -8 98 -6 100 131 100 74 0 116 4 124 12 8 8 12
57 12 155 0 124 3 149 20 183 29 57 53 70 133 70 59 0 71 3 92 25 24 23 25 31
25 135 l0 110 154 0 c111 0 156 3 164 13 6 7 12 96 14 222 3 186 5 214 23 249
35 69 61 81 186 84 129 4 149 -5 149 -68 0 -21 8 -47 18 -59 16 -20 28 -21
212 -23 l195 -3 2 255 c2 140 -1 261 -6 269 -7 10 -48 15 -174 19 l-166 5 -33
-33 c-67 -67 -152 -80 -196 -30 -15 17 -36 30 -50 30 -58 0 -102 59 -102 137
0 41 5 53 28 74 15 14 40 31 56 39 16 8 46 36 65 61 20 25 47 52 61 59 20 11
129 15 510 20 325 5 503 11 540 20 30 6 66 14 78 16 33 7 72 48 72 77 0 17 17
40 52 73 148 138 168 164 168 224 0 36 -41 86 -89 106 -86 38 -163 47 -446 53
-308 7 -328 11 -340 69 -14 66 -26 77 -98 84 -94 9 -155 55 -184 138 -39 111
27 220 133 220 56 0 84 30 84 91 0 89 95 149 235 149 75 0 86 -3 122 -29 22
-16 47 -45 57 -64 9 -20 28 -45 43 -56 56 -45 114 -16 178 90 20 32 44 59 52
59 29 0 98 -67 128 -125 35 -66 57 -85 101 -85 35 0 70 27 107 86 52 84 109
83 163 -1 21 -34 44 -57 59 -61 55 -14 114 22 140 83 20 46 51 73 86 73 53 0
83 42 99 135 14 85 16 544 4 788 -7 137 -15 157 -59 157 -53 0 -102 43 -150
135 l-22 40 -339 6 c-437 7 -451 11 -465 131 -13 109 17 101 -467 109 -477 8
-906 8 -1134 0z m1089 -442 c16 -14 19 -244 3 -254 -12 -8 -401 -8 -422 0 -17
7 -28 82 -28 203 l0 75 217 -7 c134 -4 221 -11 230 -17z m-2832 -2584 c30 -29
31 -46 6 -69 -33 -30 -91 -31 -130 -4 -44 29 -46 39 -21 71 18 23 29 27 71 27
40 0 55 -5 74 -25z m-247 -497 c17 -17 15 -59 -3 -85 -8 -12 -35 -29 -59 -38
-37 -14 -50 -15 -80 -5 -63 21 -87 85 -44 121 17 15 37 19 98 19 46 0 81 -5
88 -12z"/>
<path d="M6548 7924 c-33 -17 -37 -49 -9 -64 26 -13 134 -13 165 1 35 16 41
40 16 61 -28 23 -133 24 -172 2z"/>
<path d="M5544 7537 c-2 -7 -3 -60 -2 -118 l3 -104 115 0 115 0 0 115 0 115
-113 3 c-87 2 -114 0 -118 -11z"/>
<path d="M5617 7262 c-27 -30 -22 -87 9 -111 23 -18 41 -21 124 -21 83 0 101
3 124 21 30 24 35 72 10 107 -14 21 -23 22 -133 22 -102 0 -120 -3 -134 -18z"/>
<path d="M6023 7109 c-29 -18 -33 -26 -33 -65 0 -57 34 -94 87 -94 30 0 44 -8
79 -45 46 -50 62 -55 90 -24 19 21 18 21 -11 45 -17 14 -40 33 -52 43 -12 10
-27 38 -33 62 -19 74 -33 94 -65 97 -17 1 -44 -7 -62 -19z"/>
<path d="M5176 7099 c-21 -16 -26 -29 -26 -63 0 -52 23 -77 93 -100 100 -34
147 -10 147 73 0 68 -19 88 -100 101 -85 13 -83 13 -114 -11z"/>
<path d="M5582 6848 c-7 -7 -12 -43 -12 -89 0 -102 9 -109 135 -109 83 0 94 2
113 23 18 19 22 35 22 89 0 92 -9 98 -141 98 -68 0 -109 -4 -117 -12z"/>
<path d="M5406 6778 c-11 -15 -16 -44 -16 -90 0 -61 2 -69 25 -84 54 -35 102
7 90 80 -15 97 -64 144 -99 94z"/>
<path d="M5162 6488 c-16 -16 -15 -81 2 -121 26 -62 66 -83 148 -79 63 4 108
152 60 195 -23 21 -190 25 -210 5z"/>
<path d="M5827 6482 c-12 -13 -17 -37 -17 -75 0 -53 2 -57 31 -73 47 -24 248
-17 278 10 26 23 29 100 5 134 -14 21 -22 22 -148 22 -116 0 -135 -2 -149 -18z"/>
<path d="M5613 6292 c-12 -4 -33 -17 -47 -29 -22 -19 -26 -32 -26 -73 0 -46 3
-52 28 -61 92 -36 250 -13 298 44 29 34 30 49 7 69 -44 39 -201 69 -260 50z"/>
<path d="M5315 6200 c-34 -65 -8 -150 46 -150 24 0 29 5 35 36 8 44 0 110 -16
129 -20 24 -48 17 -65 -15z"/>
<path d="M5557 5972 c-24 -26 -21 -68 5 -86 35 -25 158 -22 192 5 32 25 34 62
4 83 -34 24 -179 22 -201 -2z"/>
<path d="M6098 5943 c-33 -37 -34 -163 -2 -163 9 0 14 11 14 35 0 38 28 72 68
82 25 6 47 38 37 53 -11 18 -100 12 -117 -7z"/>
<path d="M5085 4310 c-110 -5 -218 -13 -240 -19 -22 -6 -58 -11 -80 -11 -29 0
-60 -12 -109 -40 -86 -50 -95 -49 -110 21 -4 16 -16 31 -33 38 -20 8 -209 11
-678 9 l-650 -3 -8 -170 c-9 -213 -9 -215 -46 -215 -23 0 -40 12 -79 58 -63
73 -191 184 -307 267 l-90 65 -909 -3 -910 -2 -13 -70 c-7 -38 -17 -97 -22
-130 -5 -33 -14 -82 -20 -110 -5 -27 -17 -86 -25 -130 -14 -74 -27 -141 -61
-320 -8 -38 -21 -108 -30 -155 -9 -47 -23 -115 -31 -151 -8 -37 -14 -75 -14
-85 0 -11 -6 -48 -15 -84 -8 -36 -21 -103 -30 -150 -9 -47 -22 -114 -30 -150
-9 -36 -15 -74 -15 -85 0 -11 -6 -49 -15 -85 -8 -36 -21 -103 -30 -150 -9 -47
-22 -116 -30 -155 -8 -38 -21 -109 -29 -158 -9 -48 -22 -124 -30 -170 -29
-161 -46 -263 -61 -372 -9 -60 -22 -144 -30 -185 -8 -41 -21 -118 -30 -170
-22 -128 -43 -241 -61 -321 -8 -37 -14 -75 -14 -85 0 -11 -6 -48 -14 -84 -8
-36 -22 -101 -31 -145 -9 -44 -23 -110 -32 -147 -8 -37 -13 -74 -9 -83 5 -13
95 -15 778 -15 968 0 1125 12 1326 96 18 8 39 14 47 14 41 0 209 88 252 132
29 30 40 35 55 27 20 -11 25 -61 9 -101 -25 -67 -42 -128 -37 -136 13 -21 363
-33 861 -30 l510 3 5 145 c3 80 9 151 13 158 12 18 35 15 47 -7 5 -11 26 -25
45 -32 20 -7 42 -23 50 -36 8 -12 54 -41 102 -64 49 -23 111 -58 138 -79 54
-39 105 -60 200 -80 85 -19 655 -25 788 -10 56 7 138 16 182 20 132 13 283 52
346 89 19 11 53 29 77 41 23 12 66 49 95 81 28 32 57 59 64 59 26 0 34 -50 23
-124 -7 -39 -10 -93 -8 -120 l3 -48 275 2 c495 3 1025 16 1037 23 10 6 11 37
7 125 -6 109 -5 119 14 142 18 21 23 23 32 10 5 -8 10 -33 10 -55 1 -62 72
-197 123 -234 22 -16 229 -16 1113 -1 l532 9 125 65 c141 73 244 135 298 177
44 35 71 37 92 6 42 -60 137 -146 241 -215 l79 -52 732 0 732 0 34 23 c282
194 396 289 445 373 25 42 49 61 58 45 10 -15 -40 -226 -63 -270 -6 -11 -11
-40 -11 -66 0 -45 1 -47 43 -64 84 -37 393 -43 1845 -36 1546 6 1826 11 1842
31 7 7 15 37 19 66 7 54 25 98 40 98 4 0 12 -44 17 -98 l9 -97 435 -3 c378 -3
856 10 869 23 2 3 7 24 11 47 12 73 31 171 42 218 5 25 14 70 18 100 4 30 13
82 19 115 35 179 57 297 82 425 6 36 15 85 19 110 8 50 24 140 45 245 8 39 21
108 30 155 9 47 22 117 30 155 16 79 37 189 60 315 8 47 22 120 30 163 8 42
21 112 29 155 8 42 20 106 27 142 7 36 15 88 19 115 4 28 12 79 19 115 39 207
47 257 72 462 5 42 13 88 19 103 5 14 10 43 10 64 0 21 7 60 15 87 8 27 15 60
15 74 0 14 6 57 14 95 8 39 22 108 31 155 9 47 21 105 27 130 22 102 28 153
17 167 -9 10 -123 13 -598 13 -372 0 -600 -4 -623 -10 -60 -17 -68 -31 -68
-118 0 -42 -3 -87 -6 -99 -9 -33 -42 -30 -50 5 -3 15 -12 52 -20 83 -8 31 -14
68 -14 82 0 61 47 57 -636 57 l-624 0 -6 -27 c-3 -16 -8 -35 -11 -43 -2 -8 -9
-46 -14 -85 -19 -140 -35 -219 -46 -222 -16 -6 -123 140 -168 231 -75 147 -19
139 -1015 143 l-815 3 -69 -45 c-38 -25 -71 -45 -73 -45 -2 0 -29 -19 -60 -41
-70 -52 -171 -153 -182 -182 -14 -34 -68 -105 -90 -117 -18 -9 -31 1 -108 81
-48 50 -152 149 -231 220 l-142 129 -800 0 -800 0 -112 -116 c-62 -64 -130
-139 -151 -168 -22 -28 -41 -53 -43 -55 -9 -9 -53 12 -85 41 -93 84 -179 160
-234 205 -33 28 -69 60 -79 72 l-19 21 -819 0 -820 0 -62 -60 c-35 -33 -68
-60 -74 -60 -8 0 -12 20 -12 55 0 42 -4 56 -17 62 -27 12 -1270 0 -1282 -12
-6 -6 -14 -78 -17 -160 -6 -153 -17 -195 -50 -195 -8 0 -43 28 -77 63 -86 87
-133 121 -233 173 -48 24 -104 58 -124 74 -79 63 -75 62 -530 65 -228 2 -505
-1 -615 -5z m-926 -335 c2 -16 -4 -75 -13 -130 -52 -315 -66 -394 -120 -682
-20 -106 -42 -222 -60 -320 -8 -43 -22 -114 -30 -158 -8 -44 -22 -123 -31
-175 -9 -52 -23 -125 -31 -161 -8 -37 -14 -77 -14 -90 0 -13 -6 -57 -14 -99
-8 -41 -22 -120 -31 -175 -31 -189 -46 -280 -60 -355 -8 -41 -16 -88 -18 -105
-2 -16 -9 -59 -16 -95 -17 -90 -40 -211 -56 -300 -7 -41 -19 -102 -25 -135 -7
-33 -16 -85 -21 -115 -15 -98 -34 -162 -51 -171 -23 -13 -412 -31 -573 -27
l-130 3 3 70 c1 39 9 102 17 140 8 39 21 107 30 153 25 136 44 237 60 325 9
45 22 114 30 152 8 39 21 108 30 155 9 47 23 117 30 155 8 39 21 111 30 160
15 87 27 149 59 323 32 165 45 239 61 337 9 55 23 132 31 170 8 39 14 81 14
94 0 13 7 60 15 105 14 77 25 143 59 356 17 106 37 237 62 414 15 103 20 123
45 151 44 50 146 62 489 61 l225 -1 4 -30z m1836 12 c232 -50 343 -144 399
-336 21 -72 21 -284 1 -386 -8 -41 -22 -109 -30 -150 -8 -42 -15 -89 -15 -106
0 -23 -6 -32 -26 -39 -16 -6 -156 -9 -358 -8 l-331 3 -3 32 c-2 18 4 59 12 91
8 33 18 116 22 185 l7 126 -25 6 c-13 4 -106 5 -205 3 -178 -3 -180 -3 -216
-30 -59 -46 -84 -119 -122 -363 -21 -130 -43 -261 -60 -355 -16 -87 -34 -194
-44 -265 -4 -27 -13 -79 -20 -115 -7 -36 -19 -99 -26 -140 -7 -41 -19 -104
-26 -140 -7 -36 -15 -87 -19 -115 -4 -27 -12 -79 -19 -115 -7 -36 -19 -99 -26
-140 -7 -41 -19 -102 -25 -135 -20 -100 -25 -205 -9 -206 8 0 98 -1 202 -1
254 -1 305 14 339 100 22 53 48 164 48 204 0 18 7 58 15 88 9 33 15 99 15 165
-1 138 -10 154 -97 162 -32 3 -64 10 -70 16 -16 12 -16 76 -2 137 6 25 14 79
19 120 14 121 38 239 54 262 8 11 28 29 43 39 26 18 56 19 430 19 415 0 446
-3 458 -41 3 -10 -1 -44 -10 -77 -8 -33 -15 -72 -15 -86 0 -15 -6 -55 -14 -89
-8 -34 -21 -105 -30 -157 -9 -52 -23 -129 -31 -170 -8 -41 -21 -115 -30 -165
-23 -128 -42 -231 -55 -300 -7 -33 -16 -80 -20 -105 -10 -59 -26 -123 -62
-240 -80 -263 -199 -388 -418 -441 -165 -39 -637 -48 -1005 -20 -289 23 -441
96 -497 241 -46 121 -36 268 48 665 8 39 14 79 14 90 0 11 6 49 14 85 8 36 21
106 30 155 8 50 23 133 32 185 9 52 22 124 30 160 8 36 14 76 14 89 0 13 6 53
14 90 8 36 22 113 31 171 10 58 23 132 31 166 8 33 14 69 14 80 0 10 7 53 15
94 9 41 22 104 30 140 7 36 21 103 30 150 33 172 69 299 103 370 29 61 127
170 212 234 57 44 177 106 208 106 9 1 31 7 47 15 44 21 877 14 980 -8z m1653
1 c25 -13 27 -18 25 -68 -2 -30 -9 -80 -17 -110 -15 -60 -34 -149 -46 -220
-10 -64 -30 -167 -42 -223 -5 -26 -14 -76 -18 -110 -5 -34 -14 -89 -20 -122
-11 -58 -27 -142 -51 -275 -6 -36 -15 -94 -19 -130 -4 -36 -12 -90 -18 -120
-6 -30 -18 -100 -27 -155 -17 -101 -34 -201 -55 -310 -6 -33 -15 -89 -21 -125
-5 -36 -14 -78 -19 -94 -6 -16 -10 -42 -10 -58 0 -16 -6 -57 -14 -91 -8 -34
-22 -105 -31 -157 -9 -52 -23 -125 -31 -162 -58 -275 -75 -367 -119 -633 -10
-55 -20 -107 -25 -115 -10 -20 -115 -28 -402 -29 l-226 -1 -26 31 c-39 45 -37
68 20 329 8 36 14 75 14 88 0 13 6 51 14 85 8 34 21 105 30 157 32 183 62 352
87 480 7 36 15 90 19 120 4 30 13 82 19 115 6 33 18 101 27 150 8 50 21 126
29 170 8 44 21 123 30 175 9 52 23 129 30 170 7 41 21 118 30 170 9 52 22 131
30 175 7 44 21 125 30 180 9 55 23 134 30 175 7 41 21 120 30 175 9 55 23 125
31 156 8 30 14 64 14 74 0 11 10 43 21 71 24 58 29 60 139 74 102 13 505 4
538 -12z m1632 12 c383 -38 407 -45 496 -143 69 -75 103 -150 124 -273 26
-151 -19 -591 -63 -616 -11 -6 -141 -8 -340 -6 -253 3 -328 6 -350 18 -32 15
-32 10 2 130 11 41 24 118 27 171 9 134 18 129 -243 129 -190 0 -204 -1 -223
-20 -11 -11 -20 -32 -20 -46 0 -14 -7 -55 -15 -90 -8 -35 -22 -93 -30 -128 -8
-35 -15 -101 -15 -145 0 -70 4 -87 25 -121 39 -63 152 -143 443 -315 9 -6 44
-28 77 -50 33 -22 76 -48 95 -59 51 -27 220 -154 254 -190 104 -110 135 -238
106 -439 -46 -319 -100 -588 -147 -727 -49 -146 -141 -265 -243 -311 -154 -70
-510 -97 -915 -69 -322 23 -497 72 -599 168 -92 88 -117 162 -117 347 0 131
10 204 46 340 7 28 16 66 19 85 3 19 17 48 29 64 l24 29 341 5 c307 4 342 3
348 -11 3 -9 -1 -49 -10 -89 -16 -78 -36 -235 -36 -287 0 -25 6 -34 26 -41 14
-6 117 -13 229 -17 l204 -6 6 29 c4 16 13 54 21 85 8 31 14 67 14 80 0 13 6
56 14 94 36 174 47 257 36 271 -7 7 -42 30 -78 51 -37 21 -76 43 -87 50 -11 7
-29 17 -40 23 -11 6 -33 19 -50 30 -16 11 -37 23 -45 27 -8 4 -59 33 -113 65
-55 32 -101 58 -103 58 -2 0 -59 33 -127 73 -293 177 -378 257 -406 386 -19
89 -10 233 25 405 8 38 14 80 14 93 0 36 51 258 90 388 26 88 76 200 122 271
37 57 116 137 158 158 54 28 140 56 170 56 15 0 43 7 61 15 28 11 96 14 354
14 176 0 363 -4 415 -9z m2646 -13 c126 -21 212 -63 289 -141 71 -71 97 -131
116 -269 12 -89 2 -278 -22 -402 -6 -27 -14 -83 -19 -123 -4 -40 -11 -76 -15
-80 -4 -4 -163 -7 -353 -7 l-347 0 -3 36 c-2 21 4 63 12 95 21 86 32 280 16
299 -10 13 -51 15 -251 15 -233 0 -238 0 -262 -22 -31 -30 -43 -74 -101 -348
-30 -147 -89 -444 -121 -620 -8 -41 -21 -111 -29 -155 -8 -44 -22 -123 -31
-175 -9 -52 -22 -131 -30 -175 -8 -44 -22 -123 -31 -175 -9 -52 -22 -126 -30
-165 -7 -38 -16 -107 -20 -152 l-6 -81 28 -15 c32 -16 229 -37 351 -37 43 0
98 6 123 14 42 12 46 16 62 67 9 30 17 68 17 84 0 17 8 85 18 153 16 114 19
123 41 129 13 3 163 4 332 1 268 -4 312 -7 334 -22 32 -20 32 -36 6 -181 -21
-113 -37 -177 -65 -254 -75 -206 -230 -420 -361 -499 -103 -61 -137 -70 -324
-81 -224 -14 -651 -14 -850 0 -143 10 -160 13 -219 42 -108 54 -162 119 -212
257 -27 74 -29 311 -4 427 20 94 39 190 60 301 20 111 42 226 60 320 8 42 22
120 31 172 9 52 20 115 26 140 6 25 14 70 18 100 4 30 13 82 20 115 6 33 18
95 26 138 26 142 43 231 58 312 9 44 16 95 16 113 0 18 6 58 14 90 8 31 22 93
32 137 29 133 83 290 130 378 32 58 121 142 185 173 168 81 278 94 794 89 300
-2 423 -7 491 -18z m2429 4 c120 -24 216 -70 277 -133 54 -56 67 -78 100 -169
20 -59 22 -81 22 -264 -1 -141 -6 -227 -18 -290 -9 -49 -23 -130 -32 -180 -8
-49 -21 -121 -29 -160 -7 -38 -20 -106 -29 -150 -8 -44 -20 -107 -27 -140 -6
-33 -15 -82 -19 -110 -4 -27 -12 -79 -19 -115 -28 -145 -41 -220 -56 -310 -30
-182 -70 -409 -90 -505 -8 -38 -21 -107 -30 -152 -32 -172 -46 -250 -60 -318
-7 -38 -21 -115 -30 -170 -9 -55 -20 -107 -25 -115 -5 -11 -33 -17 -106 -21
-142 -9 -597 -10 -611 -1 -8 5 -9 20 -3 52 5 25 16 83 25 130 9 47 22 117 30
155 22 111 65 339 90 485 10 52 16 109 14 125 l-4 30 -190 8 c-104 4 -213 4
-242 1 -85 -9 -96 -29 -148 -283 -8 -40 -15 -85 -15 -100 0 -14 -7 -60 -16
-101 -8 -41 -22 -109 -31 -150 -51 -252 -71 -326 -91 -342 -20 -17 -640 -25
-670 -9 -30 16 -28 54 13 266 7 39 21 108 30 155 28 144 45 232 61 300 8 36
14 75 14 88 0 13 6 51 14 85 14 62 34 160 60 305 8 42 20 104 26 137 7 33 15
96 20 140 4 44 13 107 19 140 7 33 19 96 27 140 8 44 22 113 30 153 8 39 20
105 28 145 66 328 150 699 187 817 25 79 95 187 168 257 64 63 182 122 291
147 194 43 206 44 585 45 319 0 382 -2 460 -18z m1675 1 c27 -11 49 -27 56
-42 15 -29 38 -142 89 -420 9 -47 22 -116 29 -155 8 -38 22 -115 31 -170 16
-95 29 -165 55 -300 6 -33 15 -89 21 -125 5 -36 14 -78 19 -94 6 -16 10 -40
10 -54 0 -13 7 -56 15 -96 17 -75 44 -205 51 -245 5 -22 6 -22 24 -6 10 9 21
29 24 44 26 143 37 211 51 301 9 58 20 126 26 151 6 25 14 73 19 105 5 32 14
86 20 119 25 129 39 204 55 295 30 176 46 265 61 338 7 39 21 107 29 150 25
125 45 206 53 212 9 7 503 -8 592 -18 l65 -7 -3 -60 c-2 -33 -9 -94 -17 -135
-8 -41 -21 -118 -30 -170 -9 -52 -23 -130 -31 -172 -8 -43 -20 -113 -28 -155
-16 -88 -43 -243 -50 -288 -2 -16 -14 -79 -26 -140 -12 -60 -26 -132 -30 -160
-9 -57 -26 -142 -46 -232 -8 -34 -14 -72 -14 -85 0 -13 -6 -52 -15 -88 -16
-71 -35 -169 -60 -300 -31 -162 -68 -351 -91 -465 -8 -38 -21 -101 -28 -140
-49 -243 -98 -476 -124 -590 -18 -79 -18 -80 -57 -92 -58 -17 -634 -18 -639 0
-28 88 -102 407 -142 602 -8 44 -22 109 -29 145 -8 36 -20 99 -28 140 -35 176
-53 264 -93 460 -16 78 -34 154 -54 228 -10 38 -32 63 -45 50 -6 -6 -31 -115
-49 -213 -26 -139 -47 -248 -62 -315 -8 -36 -14 -74 -14 -85 0 -11 -6 -49 -15
-85 -8 -36 -21 -101 -29 -145 -8 -44 -20 -107 -27 -140 -6 -33 -15 -82 -19
-110 -4 -27 -12 -72 -18 -100 -6 -27 -18 -86 -26 -130 -8 -44 -22 -116 -30
-160 -9 -44 -16 -92 -16 -107 0 -49 -9 -50 -333 -56 -167 -3 -321 -2 -341 2
l-38 7 5 47 c14 112 26 190 36 237 5 28 17 88 26 135 9 47 23 113 31 147 8 34
14 72 14 84 0 13 6 50 14 83 8 34 22 106 31 161 10 55 24 127 31 161 8 33 14
69 14 80 0 10 6 51 14 89 8 39 22 117 31 175 26 167 62 368 90 500 63 302 75
363 121 603 8 45 22 114 29 152 25 121 37 188 45 240 8 59 26 153 46 246 8 37
14 77 14 90 0 52 6 53 212 62 106 4 231 11 278 16 132 12 171 11 220 -7z
m-13635 -27 c168 -21 227 -40 300 -95 131 -99 195 -268 195 -517 0 -108 -14
-246 -36 -343 -8 -36 -14 -75 -14 -88 0 -12 -6 -48 -14 -80 -14 -55 -33 -142
-61 -287 -8 -38 -21 -101 -29 -140 -7 -38 -21 -115 -31 -170 -18 -108 -36
-212 -56 -315 -7 -36 -15 -87 -19 -115 -26 -183 -78 -452 -107 -555 -23 -82
-73 -199 -108 -255 -36 -58 -140 -162 -170 -171 -11 -4 -26 -11 -34 -17 -32
-26 -182 -70 -311 -91 -171 -28 -431 -38 -925 -34 l-480 3 2 50 c2 28 10 86
18 130 9 44 23 116 31 160 34 178 42 223 54 280 7 33 16 84 20 113 5 29 13 74
19 100 5 26 17 88 26 137 9 50 22 125 30 168 8 42 22 112 30 155 8 42 21 118
30 167 9 50 22 124 30 165 8 41 22 118 31 170 9 52 22 124 29 160 8 36 21 108
30 160 9 52 23 123 31 157 8 34 14 72 14 85 0 13 6 55 14 93 18 89 35 175 46
245 5 30 19 105 30 165 12 61 26 134 30 163 5 29 13 74 19 100 6 26 13 64 16
85 13 82 56 87 720 82 365 -2 499 -7 600 -20z"/>
<path d="M13559 3395 c-45 -20 -59 -60 -113 -310 -10 -44 -24 -106 -32 -137
-8 -32 -14 -68 -14 -80 0 -13 -6 -54 -14 -93 -8 -38 -22 -108 -31 -155 -9 -47
-23 -115 -31 -152 -18 -77 -13 -91 41 -133 49 -37 140 -57 260 -58 106 -1 185
15 208 42 20 23 77 208 77 251 0 13 6 49 14 79 30 120 106 615 106 692 0 18
-9 33 -27 45 -25 17 -52 19 -218 21 -152 2 -197 0 -226 -12z"/>
<path d="M1723 3393 c-20 -18 -37 -71 -67 -203 -33 -150 -45 -207 -49 -235 -2
-16 -9 -50 -15 -75 -6 -25 -18 -83 -27 -130 -9 -47 -23 -114 -30 -150 -7 -36
-20 -101 -28 -145 -9 -44 -21 -109 -28 -145 -7 -36 -15 -87 -19 -115 -4 -27
-12 -79 -19 -115 -48 -251 -88 -490 -112 -658 -10 -70 -9 -86 2 -98 29 -28
335 -45 411 -22 30 9 44 20 57 47 33 68 65 192 125 486 9 44 23 109 31 145 9
36 15 73 15 84 0 10 6 48 14 85 8 36 22 111 31 166 23 137 44 257 60 340 7 39
21 111 30 160 20 110 42 219 60 305 47 222 44 244 -48 273 -80 25 -366 25
-394 0z"/>
</g>
</svg>
